<?xml version="1.0" encoding="UTF-8"?>
<svg width="162px" height="216px" viewBox="0 0 162 216" version="1.1" xmlns="http://www.w3.org/2000/svg" xmlns:xlink="http://www.w3.org/1999/xlink">
    <title>Artboard</title>
    <g id="Artboard" stroke="none" stroke-width="1" fill="none" fill-rule="evenodd">
        <g id="Group-5" transform="translate(25.000000, 21.000000)" fill="#020203">
            <path d="M102.088496,91.61 L98.6293805,91.61 C96.399292,97.27 90.9083186,101.28 84.5153982,101.28 C77.6070796,101.28 71.7692035,96.61 69.9256637,90.25 L62.1451327,90.25 C61.0548673,90.25 60.1628319,91.15 60.1628319,92.25 L60.1628319,101.29 C60.1628319,107.37 65.0690265,112.33 71.1051327,112.33 L96.6074336,112.33 C97.9752212,112.33 99.0853097,113.45 99.0853097,114.83 C99.0853097,116.21 97.9752212,117.33 96.6074336,117.33 L89.540531,117.33 C89.3522124,117.38 89.1539823,117.4 88.9557522,117.4 C76.259115,117.4 65.9214159,127.07 65.9214159,138.97 C65.9214159,140.35 64.8113274,141.47 63.4435398,141.47 C62.0757522,141.47 60.9656637,140.35 60.9656637,138.97 C60.9656637,130.06 65.6141593,122.15 72.740531,117.33 L71.1051327,117.33 C62.3334513,117.33 55.2070796,110.13 55.2070796,101.29 L55.2070796,92.25 C55.2070796,88.39 58.319292,85.25 62.1451327,85.25 L69.3111504,85.25 L69.3111504,8.53 C69.3111504,3.83 64.7221239,0 59.0725664,0 C53.4230088,0 48.8339823,3.83 48.8339823,8.53 L48.8339823,95.12 C48.8339823,96.51 47.7238938,97.62 46.3561062,97.62 C44.9883186,97.62 43.8782301,96.51 43.8782301,95.12 L43.8782301,27.58 C43.8782301,22.88 39.279292,19.05 33.6297345,19.05 C27.9900885,19.05 23.3911504,22.88 23.3911504,27.58 L23.3911504,96.28 C23.3911504,97.66 22.2810619,98.78 20.9132743,98.78 C19.5454867,98.78 18.4353982,97.66 18.4353982,96.28 L18.4353982,57.97 C18.4353982,52.82 14.3023009,48.64 9.21769912,48.64 C4.13309735,48.64 0,52.82 0,57.97 L0,121.35 C0,150.38 25.1256637,174 56,174 C86.8743363,174 112,150.38 112,121.35 L112,101.65 C112,96.11 107.549735,91.61 102.088496,91.61" id="Fill-1"></path>
            <path d="M84.5153982,96.28 C90.1550442,96.28 94.7539823,91.65 94.7539823,85.95 L94.7539823,60.47 C94.7539823,54.77 90.1550442,50.14 84.5153982,50.14 C78.8658407,50.14 74.2669027,54.77 74.2669027,60.47 L74.2669027,85.95 C74.2669027,91.65 78.8658407,96.28 84.5153982,96.28" id="Fill-3"></path>
        </g>
    </g>
</svg>