<?xml version="1.0" encoding="UTF-8"?>
<svg width="162px" height="216px" viewBox="0 0 162 216" version="1.1" xmlns="http://www.w3.org/2000/svg" xmlns:xlink="http://www.w3.org/1999/xlink">
    <title>Artboard</title>
    <g id="Artboard" stroke="none" stroke-width="1" fill="none" fill-rule="evenodd">
        <path d="M137.04065,142.35 C137.04065,171.38 111.896748,195 81,195 C50.103252,195 24.9593496,171.38 24.9593496,142.35 L24.9593496,78.97 C24.9593496,73.82 29.0954472,69.64 34.1837398,69.64 C39.2720325,69.64 43.4081301,73.82 43.4081301,78.97 L43.4081301,117.28 C43.4081301,118.66 44.5190244,119.78 45.8878049,119.78 C47.2565854,119.78 48.3674797,118.66 48.3674797,117.28 L48.3674797,48.58 C48.3674797,43.88 52.9697561,40.05 58.6134959,40.05 C64.2671545,40.05 68.8694309,43.88 68.8694309,48.58 L68.8694309,116.12 C68.8694309,117.51 69.9803252,118.62 71.3491057,118.62 C72.7178862,118.62 73.8287805,117.51 73.8287805,116.12 L73.8287805,29.53 C73.8287805,24.83 78.4211382,21 84.0747967,21 C89.7284553,21 94.320813,24.83 94.320813,29.53 L94.320813,106.25 L87.1495935,106.25 C83.3209756,106.25 80.2065041,109.39 80.2065041,113.25 L80.2065041,122.29 C80.2065041,131.13 87.3380488,138.33 96.1160976,138.33 L97.7526829,138.33 C90.6211382,143.15 85.9692683,151.06 85.9692683,159.97 C85.9692683,161.35 87.0801626,162.47 88.4489431,162.47 C89.8177236,162.47 90.9286179,161.35 90.9286179,159.97 C90.9286179,148.07 101.273821,138.4 113.979675,138.4 C114.178049,138.4 114.376423,138.38 114.564878,138.33 L121.636911,138.33 C123.005691,138.33 124.116585,137.21 124.116585,135.83 C124.116585,134.45 123.005691,133.33 121.636911,133.33 L96.1160976,133.33 C90.0756098,133.33 85.1658537,128.37 85.1658537,122.29 L85.1658537,113.25 C85.1658537,112.15 86.0585366,111.25 87.1495935,111.25 L94.9357724,111.25 C96.7806504,117.61 102.622764,122.28 109.536098,122.28 C115.933659,122.28 121.428618,118.27 123.660325,112.61 L127.121951,112.61 C132.587154,112.61 137.04065,117.11 137.04065,122.65 L137.04065,142.35 Z M99.2801626,81.47 C99.2801626,75.77 103.882439,71.14 109.536098,71.14 C115.179837,71.14 119.782114,75.77 119.782114,81.47 L119.782114,106.95 C119.782114,112.65 115.179837,117.28 109.536098,117.28 C103.882439,117.28 99.2801626,112.65 99.2801626,106.95 L99.2801626,81.47 Z M127.121951,107.61 L124.721626,107.61 C124.741463,107.39 124.741463,107.17 124.741463,106.95 L124.741463,81.47 C124.741463,73.02 117.917398,66.14 109.536098,66.14 C105.588455,66.14 101.987967,67.66 99.2801626,70.16 L99.2801626,29.53 C99.2801626,22.07 92.4660163,16 84.0747967,16 C75.6835772,16 68.8694309,22.07 68.8694309,29.53 L68.8694309,38.6 C66.161626,36.4 62.5611382,35.05 58.6134959,35.05 C50.2321951,35.05 43.4081301,41.12 43.4081301,48.58 L43.4081301,68.09 C40.9185366,65.94 37.704878,64.64 34.1837398,64.64 C26.3578862,64.64 20,71.06 20,78.97 L20,142.35 C20,174.14 47.3656911,200 81,200 C114.634309,200 142,174.14 142,142.35 L142,122.65 C142,114.36 135.324715,107.61 127.121951,107.61 L127.121951,107.61 Z" id="Fill-1" fill="#020203"></path>
    </g>
</svg>